<svg xmlns="http://www.w3.org/2000/svg" viewBox="0 0 64 88" fill="white">
  <!-- Hook - curved top -->
  <rect x="30" y="0" width="4" height="4"/>
  <rect x="34" y="0" width="4" height="4"/>
  <rect x="38" y="2" width="4" height="4"/>
  <rect x="40" y="6" width="4" height="4"/>
  <rect x="38" y="10" width="4" height="4"/>
  <rect x="34" y="12" width="4" height="4"/>
  <rect x="30" y="8" width="4" height="8"/>
  <!-- Arms -->
  <rect x="26" y="16" width="4" height="4"/>
  <rect x="34" y="16" width="4" height="4"/>
  <rect x="22" y="20" width="4" height="4"/>
  <rect x="38" y="20" width="4" height="4"/>
  <rect x="18" y="24" width="4" height="4"/>
  <rect x="42" y="24" width="4" height="4"/>
  <rect x="14" y="28" width="4" height="4"/>
  <rect x="46" y="28" width="4" height="4"/>
  <rect x="10" y="32" width="4" height="4"/>
  <rect x="50" y="32" width="4" height="4"/>
  <!-- Bar -->
  <rect x="6" y="36" width="52" height="4"/>
  <!-- Connectors -->
  <rect x="20" y="40" width="4" height="4"/>
  <rect x="40" y="40" width="4" height="4"/>
  <!-- Tag -->
  <rect x="16" y="44" width="32" height="4"/>
  <rect x="16" y="44" width="4" height="40"/>
  <rect x="44" y="44" width="4" height="40"/>
  <rect x="16" y="80" width="32" height="4"/>
  <!-- S -->
  <rect x="26" y="54" width="12" height="4"/>
  <rect x="24" y="54" width="4" height="4"/>
  <rect x="24" y="58" width="4" height="4"/>
  <rect x="26" y="62" width="12" height="4"/>
  <rect x="36" y="66" width="4" height="4"/>
  <rect x="36" y="70" width="4" height="4"/>
  <rect x="24" y="70" width="14" height="4"/>
  <rect x="24" y="74" width="4" height="4"/>
</svg>
