<svg xmlns="http://www.w3.org/2000/svg" viewBox="0 0 64 80" fill="none">
  <!-- Hanger hook -->
  <rect x="30" y="0" width="4" height="4" fill="currentColor"/>
  <rect x="26" y="4" width="4" height="4" fill="currentColor"/>
  <rect x="34" y="4" width="4" height="4" fill="currentColor"/>
  <!-- Hanger arms -->
  <rect x="22" y="8" width="4" height="4" fill="currentColor"/>
  <rect x="38" y="8" width="4" height="4" fill="currentColor"/>
  <rect x="18" y="12" width="4" height="4" fill="currentColor"/>
  <rect x="42" y="12" width="4" height="4" fill="currentColor"/>
  <rect x="14" y="16" width="4" height="4" fill="currentColor"/>
  <rect x="46" y="16" width="4" height="4" fill="currentColor"/>
  <rect x="10" y="20" width="4" height="4" fill="currentColor"/>
  <rect x="50" y="20" width="4" height="4" fill="currentColor"/>
  <!-- Hanger bar -->
  <rect x="6" y="24" width="52" height="4" fill="currentColor"/>
  <!-- Tag connectors -->
  <rect x="20" y="28" width="4" height="4" fill="currentColor"/>
  <rect x="40" y="28" width="4" height="4" fill="currentColor"/>
  <!-- Tag outline -->
  <rect x="16" y="32" width="32" height="4" fill="currentColor"/>
  <rect x="16" y="32" width="4" height="44" fill="currentColor"/>
  <rect x="44" y="32" width="4" height="44" fill="currentColor"/>
  <rect x="16" y="72" width="32" height="4" fill="currentColor"/>
  <!-- S letter pixel art -->
  <rect x="26" y="42" width="12" height="4" fill="currentColor"/>
  <rect x="24" y="42" width="4" height="4" fill="currentColor"/>
  <rect x="24" y="46" width="4" height="4" fill="currentColor"/>
  <rect x="26" y="50" width="12" height="4" fill="currentColor"/>
  <rect x="36" y="54" width="4" height="4" fill="currentColor"/>
  <rect x="36" y="58" width="4" height="4" fill="currentColor"/>
  <rect x="24" y="58" width="14" height="4" fill="currentColor"/>
  <rect x="24" y="62" width="4" height="4" fill="currentColor"/>
</svg>
